<?xml version="1.0" encoding="UTF-8" standalone="no"?>
<!-- Created with Inkscape (http://www.inkscape.org/) -->

<svg
   width="137.05417mm"
   height="61.956596mm"
   viewBox="0 0 137.05417 61.956596"
   version="1.1"
   id="svg5"
   inkscape:version="1.1.1 (3bf5ae0d25, 2021-09-20)"
   sodipodi:docname="verkefni2.svg"
   xmlns:inkscape="http://www.inkscape.org/namespaces/inkscape"
   xmlns:sodipodi="http://sodipodi.sourceforge.net/DTD/sodipodi-0.dtd"
   xmlns="http://www.w3.org/2000/svg"
   xmlns:svg="http://www.w3.org/2000/svg">
  <sodipodi:namedview
     id="namedview7"
     pagecolor="#ffffff"
     bordercolor="#666666"
     borderopacity="1.0"
     inkscape:pageshadow="2"
     inkscape:pageopacity="0.0"
     inkscape:pagecheckerboard="0"
     inkscape:document-units="mm"
     showgrid="false"
     inkscape:zoom="0.74118967"
     inkscape:cx="247.57495"
     inkscape:cy="242.17823"
     inkscape:window-width="1920"
     inkscape:window-height="1017"
     inkscape:window-x="-8"
     inkscape:window-y="-8"
     inkscape:window-maximized="1"
     inkscape:current-layer="layer1" />
  <defs
     id="defs2">
    <clipPath
       id="clip0">
      <rect
         x="196"
         y="183"
         width="518"
         height="237"
         id="rect824" />
    </clipPath>
  </defs>
  <g
     inkscape:label="Lag 1"
     inkscape:groupmode="layer"
     id="layer1"
     transform="translate(-39.635177,-84.680355)">
    <g
       clip-path="url(#clip0)"
       transform="matrix(0.26458333,0,0,0.26458333,-12.223156,36.261606)"
       id="g843">
      <path
         d="m 196.5,222.333 c 0,-21.447 17.386,-38.833 38.833,-38.833 h 439.334 c 21.447,0 38.833,17.386 38.833,38.833 v 155.334 c 0,21.447 -17.386,38.833 -38.833,38.833 H 235.333 c -21.447,0 -38.833,-17.386 -38.833,-38.833 z"
         stroke="#2f528f"
         stroke-width="1.33333"
         stroke-miterlimit="8"
         fill="#4472c4"
         fill-rule="evenodd"
         id="path829" />
      <path
         d="m 595.117,222.486 c -0.766,0 -1.426,0.192 -1.981,0.575 -0.554,0.382 -1,0.894 -1.335,1.535 -0.336,0.64 -0.586,1.355 -0.75,2.144 -0.165,0.789 -0.247,1.598 -0.247,2.426 0,0.875 0.071,1.727 0.211,2.555 0.141,0.828 0.371,1.566 0.692,2.215 0.32,0.648 0.746,1.168 1.277,1.558 0.531,0.391 1.203,0.586 2.016,0.586 0.406,0 0.801,-0.058 1.183,-0.176 0.383,-0.117 0.774,-0.308 1.172,-0.574 0.399,-0.265 0.809,-0.613 1.231,-1.043 0.422,-0.429 0.883,-0.957 1.383,-1.582 v -6.937 c -0.844,-1.063 -1.653,-1.875 -2.426,-2.438 -0.774,-0.562 -1.582,-0.844 -2.426,-0.844 z m -204.813,-0.82 c -0.75,0 -1.402,0.141 -1.957,0.422 -0.554,0.281 -1.015,0.66 -1.382,1.137 -0.368,0.476 -0.649,1.039 -0.844,1.687 -0.195,0.649 -0.309,1.34 -0.34,2.074 h 8.813 c 0.046,-1.656 -0.286,-2.957 -0.997,-3.902 -0.71,-0.945 -1.808,-1.418 -3.293,-1.418 z m -75,0 c -0.75,0 -1.402,0.141 -1.957,0.422 -0.554,0.281 -1.015,0.66 -1.382,1.137 -0.368,0.476 -0.649,1.039 -0.844,1.687 -0.195,0.649 -0.309,1.34 -0.34,2.074 h 8.813 c 0.046,-1.656 -0.286,-2.957 -0.997,-3.902 -0.71,-0.945 -1.808,-1.418 -3.293,-1.418 z m 222.258,-3.773 c 0.672,0 1.203,0.011 1.594,0.035 0.391,0.023 0.695,0.082 0.914,0.176 0.219,0.093 0.383,0.238 0.492,0.433 0.11,0.196 0.219,0.473 0.328,0.832 l 4.922,13.992 h 0.071 l 4.5,-14.273 c 0.093,-0.406 0.214,-0.676 0.363,-0.809 0.148,-0.132 0.394,-0.23 0.738,-0.293 0.344,-0.062 0.945,-0.093 1.805,-0.093 0.672,0 1.23,0.031 1.676,0.093 0.445,0.063 0.773,0.18 0.984,0.352 0.211,0.172 0.316,0.402 0.316,0.691 0,0.289 -0.062,0.629 -0.187,1.02 l -6.961,20.484 -2.531,7.407 c -0.141,0.39 -0.524,0.671 -1.149,0.843 -0.625,0.172 -1.539,0.258 -2.742,0.258 -0.625,0 -1.125,-0.027 -1.5,-0.082 -0.375,-0.055 -0.656,-0.144 -0.844,-0.269 -0.187,-0.125 -0.289,-0.282 -0.304,-0.469 -0.016,-0.188 0.031,-0.414 0.14,-0.68 l 2.789,-7.008 c -0.203,-0.093 -0.386,-0.238 -0.55,-0.433 -0.165,-0.196 -0.286,-0.403 -0.364,-0.621 l -7.195,-19.219 c -0.203,-0.547 -0.305,-0.965 -0.305,-1.254 0,-0.289 0.094,-0.516 0.282,-0.68 0.187,-0.164 0.503,-0.277 0.949,-0.34 0.445,-0.062 1.035,-0.093 1.769,-0.093 z m -89.75,0 c 0.578,0 1.055,0.019 1.43,0.058 0.375,0.039 0.676,0.098 0.902,0.176 0.227,0.078 0.387,0.176 0.481,0.293 0.094,0.117 0.14,0.254 0.14,0.41 v 11.813 c 0,1.093 0.071,1.929 0.211,2.508 0.141,0.578 0.356,1.074 0.645,1.488 0.289,0.414 0.656,0.734 1.101,0.961 0.446,0.226 0.965,0.34 1.559,0.34 0.75,0 1.504,-0.274 2.262,-0.821 0.758,-0.547 1.566,-1.343 2.426,-2.39 V 218.83 c 0,-0.156 0.043,-0.293 0.128,-0.41 0.086,-0.117 0.243,-0.215 0.469,-0.293 0.227,-0.078 0.528,-0.137 0.903,-0.176 0.375,-0.039 0.851,-0.058 1.429,-0.058 0.578,0 1.055,0.019 1.43,0.058 0.375,0.039 0.672,0.098 0.891,0.176 0.218,0.078 0.375,0.176 0.468,0.293 0.094,0.117 0.141,0.254 0.141,0.41 v 20.906 c 0,0.157 -0.039,0.293 -0.117,0.411 -0.078,0.117 -0.215,0.214 -0.41,0.293 -0.196,0.078 -0.454,0.136 -0.774,0.175 -0.32,0.039 -0.723,0.059 -1.207,0.059 -0.516,0 -0.933,-0.02 -1.254,-0.059 -0.32,-0.039 -0.574,-0.097 -0.762,-0.175 -0.187,-0.079 -0.32,-0.176 -0.398,-0.293 -0.078,-0.118 -0.117,-0.254 -0.117,-0.411 v -2.414 c -1.156,1.25 -2.332,2.188 -3.527,2.813 -1.196,0.625 -2.434,0.937 -3.715,0.937 -1.438,0 -2.645,-0.234 -3.621,-0.703 -0.977,-0.468 -1.766,-1.109 -2.368,-1.922 -0.601,-0.812 -1.031,-1.754 -1.289,-2.824 -0.257,-1.07 -0.386,-2.402 -0.386,-3.996 V 218.83 c 0,-0.156 0.043,-0.293 0.129,-0.41 0.085,-0.117 0.242,-0.215 0.468,-0.293 0.227,-0.078 0.532,-0.137 0.914,-0.176 0.383,-0.039 0.856,-0.058 1.418,-0.058 z m 124.492,-0.399 c 1.422,0 2.622,0.235 3.598,0.703 0.977,0.469 1.766,1.106 2.367,1.911 0.602,0.804 1.035,1.746 1.301,2.824 0.266,1.078 0.399,2.375 0.399,3.89 v 12.914 c 0,0.157 -0.047,0.293 -0.141,0.411 -0.094,0.117 -0.25,0.214 -0.469,0.293 -0.219,0.078 -0.519,0.136 -0.902,0.175 -0.383,0.039 -0.856,0.059 -1.418,0.059 -0.578,0 -1.059,-0.02 -1.442,-0.059 -0.382,-0.039 -0.683,-0.097 -0.902,-0.175 -0.219,-0.079 -0.375,-0.176 -0.469,-0.293 -0.093,-0.118 -0.14,-0.254 -0.14,-0.411 v -11.929 c 0,-1.016 -0.075,-1.813 -0.223,-2.391 -0.148,-0.578 -0.363,-1.074 -0.644,-1.488 -0.282,-0.414 -0.645,-0.735 -1.09,-0.961 -0.446,-0.227 -0.965,-0.34 -1.559,-0.34 -0.75,0 -1.508,0.274 -2.273,0.82 -0.766,0.547 -1.563,1.344 -2.391,2.391 v 13.898 c 0,0.157 -0.047,0.293 -0.141,0.411 -0.093,0.117 -0.254,0.214 -0.48,0.293 -0.227,0.078 -0.527,0.136 -0.902,0.175 -0.375,0.039 -0.852,0.059 -1.43,0.059 -0.578,0 -1.055,-0.02 -1.43,-0.059 -0.375,-0.039 -0.676,-0.097 -0.902,-0.175 -0.227,-0.079 -0.387,-0.176 -0.481,-0.293 -0.093,-0.118 -0.14,-0.254 -0.14,-0.411 V 218.83 c 0,-0.156 0.039,-0.293 0.117,-0.41 0.078,-0.117 0.219,-0.215 0.422,-0.293 0.203,-0.078 0.465,-0.137 0.785,-0.176 0.32,-0.039 0.723,-0.058 1.207,-0.058 0.5,0 0.914,0.019 1.242,0.058 0.328,0.039 0.582,0.098 0.762,0.176 0.18,0.078 0.309,0.176 0.387,0.293 0.078,0.117 0.117,0.254 0.117,0.41 v 2.414 c 1.156,-1.25 2.332,-2.187 3.527,-2.812 1.195,-0.625 2.442,-0.938 3.738,-0.938 z m -62.21,0 c 0.859,0 1.632,0.09 2.32,0.27 0.687,0.179 1.301,0.437 1.84,0.773 0.539,0.336 1.004,0.739 1.394,1.207 0.391,0.469 0.719,0.992 0.985,1.571 0.625,-0.672 1.238,-1.25 1.839,-1.735 0.602,-0.484 1.196,-0.879 1.782,-1.183 0.586,-0.305 1.172,-0.532 1.757,-0.68 0.586,-0.149 1.184,-0.223 1.793,-0.223 1.391,0 2.563,0.235 3.516,0.703 0.953,0.469 1.723,1.106 2.309,1.911 0.586,0.804 1.004,1.746 1.254,2.824 0.25,1.078 0.375,2.219 0.375,3.422 v 13.382 c 0,0.157 -0.047,0.293 -0.141,0.411 -0.094,0.117 -0.25,0.214 -0.469,0.293 -0.219,0.078 -0.515,0.136 -0.89,0.175 -0.375,0.039 -0.852,0.059 -1.43,0.059 -0.594,0 -1.078,-0.02 -1.453,-0.059 -0.375,-0.039 -0.676,-0.097 -0.903,-0.175 -0.226,-0.079 -0.382,-0.176 -0.468,-0.293 -0.086,-0.118 -0.129,-0.254 -0.129,-0.411 v -12.398 c 0,-0.703 -0.067,-1.344 -0.199,-1.922 -0.133,-0.578 -0.336,-1.074 -0.61,-1.488 -0.273,-0.414 -0.617,-0.735 -1.031,-0.961 -0.414,-0.227 -0.91,-0.34 -1.488,-0.34 -0.703,0 -1.414,0.274 -2.133,0.82 -0.719,0.547 -1.5,1.344 -2.344,2.391 v 13.898 c 0,0.157 -0.047,0.293 -0.141,0.411 -0.093,0.117 -0.253,0.214 -0.48,0.293 -0.227,0.078 -0.527,0.136 -0.902,0.175 -0.375,0.039 -0.844,0.059 -1.407,0.059 -0.578,0 -1.054,-0.02 -1.429,-0.059 -0.375,-0.039 -0.676,-0.097 -0.903,-0.175 -0.226,-0.079 -0.386,-0.176 -0.48,-0.293 -0.094,-0.118 -0.141,-0.254 -0.141,-0.411 v -12.398 c 0,-0.703 -0.066,-1.344 -0.199,-1.922 -0.133,-0.578 -0.332,-1.074 -0.598,-1.488 -0.265,-0.414 -0.609,-0.735 -1.031,-0.961 -0.422,-0.227 -0.914,-0.34 -1.476,-0.34 -0.719,0 -1.438,0.274 -2.157,0.82 -0.718,0.547 -1.492,1.344 -2.32,2.391 v 13.898 c 0,0.157 -0.047,0.293 -0.141,0.411 -0.093,0.117 -0.253,0.214 -0.48,0.293 -0.227,0.078 -0.527,0.136 -0.902,0.175 -0.375,0.039 -0.852,0.059 -1.43,0.059 -0.578,0 -1.055,-0.02 -1.43,-0.059 -0.375,-0.039 -0.676,-0.097 -0.902,-0.175 -0.227,-0.079 -0.387,-0.176 -0.481,-0.293 -0.093,-0.118 -0.14,-0.254 -0.14,-0.411 V 218.83 c 0,-0.156 0.039,-0.293 0.117,-0.41 0.078,-0.117 0.219,-0.215 0.422,-0.293 0.203,-0.078 0.465,-0.137 0.785,-0.176 0.32,-0.039 0.723,-0.058 1.207,-0.058 0.5,0 0.914,0.019 1.242,0.058 0.328,0.039 0.582,0.098 0.762,0.176 0.18,0.078 0.309,0.176 0.387,0.293 0.078,0.117 0.117,0.254 0.117,0.41 v 2.414 c 1.156,-1.25 2.308,-2.187 3.457,-2.812 1.148,-0.625 2.348,-0.938 3.598,-0.938 z m -29.5,0 c 0.203,0 0.421,0.012 0.656,0.035 0.234,0.024 0.476,0.063 0.726,0.118 0.25,0.054 0.469,0.117 0.657,0.187 0.187,0.07 0.324,0.145 0.41,0.223 0.086,0.078 0.148,0.164 0.187,0.258 0.039,0.093 0.074,0.222 0.106,0.386 0.031,0.164 0.054,0.41 0.07,0.739 0.016,0.328 0.023,0.773 0.023,1.336 0,0.562 -0.015,1.023 -0.046,1.382 -0.032,0.36 -0.079,0.641 -0.141,0.844 -0.063,0.203 -0.145,0.344 -0.246,0.422 -0.102,0.078 -0.231,0.117 -0.387,0.117 -0.125,0 -0.265,-0.027 -0.422,-0.082 -0.156,-0.055 -0.332,-0.113 -0.527,-0.176 -0.195,-0.062 -0.41,-0.121 -0.645,-0.175 -0.234,-0.055 -0.492,-0.082 -0.773,-0.082 -0.328,0 -0.656,0.066 -0.984,0.199 -0.329,0.133 -0.668,0.34 -1.02,0.621 -0.351,0.281 -0.719,0.656 -1.101,1.125 -0.383,0.469 -0.793,1.047 -1.231,1.734 v 13.031 c 0,0.157 -0.047,0.293 -0.141,0.411 -0.093,0.117 -0.253,0.214 -0.48,0.293 -0.227,0.078 -0.527,0.136 -0.902,0.175 -0.375,0.039 -0.852,0.059 -1.43,0.059 -0.578,0 -1.055,-0.02 -1.43,-0.059 -0.375,-0.039 -0.676,-0.097 -0.902,-0.175 -0.227,-0.079 -0.387,-0.176 -0.481,-0.293 -0.093,-0.118 -0.14,-0.254 -0.14,-0.411 V 218.83 c 0,-0.156 0.039,-0.293 0.117,-0.41 0.078,-0.117 0.219,-0.215 0.422,-0.293 0.203,-0.078 0.465,-0.137 0.785,-0.176 0.32,-0.039 0.723,-0.058 1.207,-0.058 0.5,0 0.914,0.019 1.242,0.058 0.328,0.039 0.582,0.098 0.762,0.176 0.18,0.078 0.309,0.176 0.387,0.293 0.078,0.117 0.117,0.254 0.117,0.41 v 2.602 c 0.547,-0.781 1.062,-1.426 1.547,-1.934 0.484,-0.508 0.945,-0.91 1.383,-1.207 0.437,-0.297 0.875,-0.504 1.312,-0.621 0.438,-0.117 0.875,-0.176 1.313,-0.176 z m -62.5,0 c 0.859,0 1.632,0.09 2.32,0.27 0.687,0.179 1.301,0.437 1.84,0.773 0.539,0.336 1.004,0.739 1.394,1.207 0.391,0.469 0.719,0.992 0.985,1.571 0.625,-0.672 1.238,-1.25 1.839,-1.735 0.602,-0.484 1.196,-0.879 1.782,-1.183 0.586,-0.305 1.172,-0.532 1.758,-0.68 0.585,-0.149 1.183,-0.223 1.792,-0.223 1.391,0 2.563,0.235 3.516,0.703 0.953,0.469 1.723,1.106 2.309,1.911 0.586,0.804 1.004,1.746 1.254,2.824 0.25,1.078 0.375,2.219 0.375,3.422 v 13.382 c 0,0.157 -0.047,0.293 -0.141,0.411 -0.094,0.117 -0.25,0.214 -0.469,0.293 -0.219,0.078 -0.515,0.136 -0.89,0.175 -0.375,0.039 -0.852,0.059 -1.43,0.059 -0.594,0 -1.078,-0.02 -1.453,-0.059 -0.375,-0.039 -0.676,-0.097 -0.903,-0.175 -0.226,-0.079 -0.382,-0.176 -0.468,-0.293 -0.086,-0.118 -0.129,-0.254 -0.129,-0.411 v -12.398 c 0,-0.703 -0.067,-1.344 -0.199,-1.922 -0.133,-0.578 -0.336,-1.074 -0.61,-1.488 -0.273,-0.414 -0.617,-0.735 -1.031,-0.961 -0.414,-0.227 -0.91,-0.34 -1.488,-0.34 -0.703,0 -1.414,0.274 -2.133,0.82 -0.719,0.547 -1.5,1.344 -2.344,2.391 v 13.898 c 0,0.157 -0.047,0.293 -0.141,0.411 -0.093,0.117 -0.253,0.214 -0.48,0.293 -0.227,0.078 -0.527,0.136 -0.902,0.175 -0.375,0.039 -0.844,0.059 -1.407,0.059 -0.578,0 -1.054,-0.02 -1.429,-0.059 -0.375,-0.039 -0.676,-0.097 -0.903,-0.175 -0.226,-0.079 -0.386,-0.176 -0.48,-0.293 -0.094,-0.118 -0.141,-0.254 -0.141,-0.411 v -12.398 c 0,-0.703 -0.066,-1.344 -0.199,-1.922 -0.133,-0.578 -0.332,-1.074 -0.598,-1.488 -0.265,-0.414 -0.609,-0.735 -1.031,-0.961 -0.422,-0.227 -0.914,-0.34 -1.476,-0.34 -0.719,0 -1.438,0.274 -2.157,0.82 -0.718,0.547 -1.492,1.344 -2.32,2.391 v 13.898 c 0,0.157 -0.047,0.293 -0.141,0.411 -0.093,0.117 -0.253,0.214 -0.48,0.293 -0.227,0.078 -0.527,0.136 -0.902,0.175 -0.375,0.039 -0.852,0.059 -1.43,0.059 -0.578,0 -1.055,-0.02 -1.43,-0.059 -0.375,-0.039 -0.676,-0.097 -0.902,-0.175 -0.227,-0.079 -0.387,-0.176 -0.481,-0.293 -0.093,-0.118 -0.14,-0.254 -0.14,-0.411 V 218.83 c 0,-0.156 0.039,-0.293 0.117,-0.41 0.078,-0.117 0.219,-0.215 0.422,-0.293 0.203,-0.078 0.465,-0.137 0.785,-0.176 0.32,-0.039 0.723,-0.058 1.207,-0.058 0.5,0 0.914,0.019 1.242,0.058 0.328,0.039 0.582,0.098 0.762,0.176 0.18,0.078 0.309,0.176 0.387,0.293 0.078,0.117 0.117,0.254 0.117,0.41 v 2.414 c 1.156,-1.25 2.308,-2.187 3.457,-2.812 1.148,-0.625 2.348,-0.938 3.598,-0.938 z m -27.649,0 c 1.75,0 3.246,0.258 4.488,0.774 1.243,0.515 2.262,1.23 3.059,2.144 0.797,0.914 1.383,1.996 1.758,3.246 0.375,1.25 0.562,2.61 0.562,4.078 v 0.938 c 0,0.719 -0.16,1.25 -0.48,1.594 -0.32,0.343 -0.762,0.515 -1.324,0.515 h -12.727 c 0,0.891 0.106,1.7 0.316,2.426 0.211,0.727 0.547,1.344 1.008,1.852 0.461,0.507 1.055,0.894 1.782,1.16 0.726,0.265 1.597,0.398 2.613,0.398 1.031,0 1.937,-0.074 2.719,-0.222 0.781,-0.149 1.457,-0.313 2.027,-0.493 0.57,-0.179 1.043,-0.343 1.418,-0.492 0.375,-0.148 0.68,-0.222 0.914,-0.222 0.141,0 0.258,0.027 0.351,0.082 0.094,0.054 0.172,0.152 0.235,0.293 0.062,0.14 0.105,0.339 0.129,0.597 0.023,0.258 0.035,0.582 0.035,0.973 0,0.344 -0.008,0.637 -0.024,0.879 -0.015,0.242 -0.039,0.449 -0.07,0.621 -0.031,0.172 -0.078,0.316 -0.14,0.433 -0.063,0.118 -0.145,0.231 -0.247,0.34 -0.101,0.11 -0.378,0.258 -0.832,0.446 -0.453,0.187 -1.031,0.371 -1.734,0.55 -0.703,0.18 -1.508,0.336 -2.414,0.469 -0.906,0.133 -1.875,0.199 -2.906,0.199 -1.86,0 -3.489,-0.234 -4.887,-0.703 -1.398,-0.468 -2.566,-1.179 -3.504,-2.133 -0.937,-0.953 -1.637,-2.156 -2.098,-3.609 -0.46,-1.453 -0.691,-3.156 -0.691,-5.109 0,-1.86 0.242,-3.535 0.727,-5.028 0.484,-1.492 1.187,-2.757 2.109,-3.797 0.922,-1.039 2.043,-1.832 3.363,-2.378 1.321,-0.547 2.809,-0.821 4.465,-0.821 z m -49.851,0 c 0.203,0 0.421,0.012 0.656,0.035 0.234,0.024 0.476,0.063 0.726,0.118 0.25,0.054 0.469,0.117 0.657,0.187 0.187,0.07 0.324,0.145 0.41,0.223 0.086,0.078 0.148,0.164 0.187,0.258 0.039,0.093 0.074,0.222 0.106,0.386 0.031,0.164 0.054,0.41 0.07,0.739 0.016,0.328 0.023,0.773 0.023,1.336 0,0.562 -0.015,1.023 -0.046,1.382 -0.032,0.36 -0.079,0.641 -0.141,0.844 -0.063,0.203 -0.145,0.344 -0.246,0.422 -0.102,0.078 -0.231,0.117 -0.387,0.117 -0.125,0 -0.265,-0.027 -0.422,-0.082 -0.156,-0.055 -0.332,-0.113 -0.527,-0.176 -0.195,-0.062 -0.41,-0.121 -0.645,-0.175 -0.234,-0.055 -0.492,-0.082 -0.773,-0.082 -0.328,0 -0.656,0.066 -0.984,0.199 -0.329,0.133 -0.668,0.34 -1.02,0.621 -0.351,0.281 -0.719,0.656 -1.101,1.125 -0.383,0.469 -0.793,1.047 -1.231,1.734 v 13.031 c 0,0.157 -0.047,0.293 -0.141,0.411 -0.093,0.117 -0.253,0.214 -0.48,0.293 -0.227,0.078 -0.527,0.136 -0.902,0.175 -0.375,0.039 -0.852,0.059 -1.43,0.059 -0.578,0 -1.055,-0.02 -1.43,-0.059 -0.375,-0.039 -0.676,-0.097 -0.902,-0.175 -0.227,-0.079 -0.387,-0.176 -0.481,-0.293 -0.093,-0.118 -0.14,-0.254 -0.14,-0.411 V 218.83 c 0,-0.156 0.039,-0.293 0.117,-0.41 0.078,-0.117 0.219,-0.215 0.422,-0.293 0.203,-0.078 0.465,-0.137 0.785,-0.176 0.32,-0.039 0.723,-0.058 1.207,-0.058 0.5,0 0.914,0.019 1.242,0.058 0.328,0.039 0.582,0.098 0.762,0.176 0.18,0.078 0.309,0.176 0.387,0.293 0.078,0.117 0.117,0.254 0.117,0.41 v 2.602 c 0.547,-0.781 1.062,-1.426 1.547,-1.934 0.484,-0.508 0.945,-0.91 1.383,-1.207 0.437,-0.297 0.875,-0.504 1.312,-0.621 0.438,-0.117 0.875,-0.176 1.313,-0.176 z m -25.149,0 c 1.75,0 3.246,0.258 4.488,0.774 1.243,0.515 2.262,1.23 3.059,2.144 0.797,0.914 1.383,1.996 1.758,3.246 0.375,1.25 0.562,2.61 0.562,4.078 v 0.938 c 0,0.719 -0.16,1.25 -0.48,1.594 -0.32,0.343 -0.762,0.515 -1.324,0.515 h -12.727 c 0,0.891 0.106,1.7 0.316,2.426 0.211,0.727 0.547,1.344 1.008,1.852 0.461,0.507 1.055,0.894 1.782,1.16 0.726,0.265 1.597,0.398 2.613,0.398 1.031,0 1.937,-0.074 2.719,-0.222 0.781,-0.149 1.457,-0.313 2.027,-0.493 0.57,-0.179 1.043,-0.343 1.418,-0.492 0.375,-0.148 0.68,-0.222 0.914,-0.222 0.141,0 0.258,0.027 0.351,0.082 0.094,0.054 0.172,0.152 0.235,0.293 0.062,0.14 0.105,0.339 0.129,0.597 0.023,0.258 0.035,0.582 0.035,0.973 0,0.344 -0.008,0.637 -0.024,0.879 -0.015,0.242 -0.039,0.449 -0.07,0.621 -0.031,0.172 -0.078,0.316 -0.14,0.433 -0.063,0.118 -0.145,0.231 -0.247,0.34 -0.101,0.11 -0.378,0.258 -0.832,0.446 -0.453,0.187 -1.031,0.371 -1.734,0.55 -0.703,0.18 -1.508,0.336 -2.414,0.469 -0.906,0.133 -1.875,0.199 -2.906,0.199 -1.86,0 -3.489,-0.234 -4.887,-0.703 -1.398,-0.468 -2.566,-1.179 -3.504,-2.133 -0.937,-0.953 -1.637,-2.156 -2.098,-3.609 -0.46,-1.453 -0.691,-3.156 -0.691,-5.109 0,-1.86 0.242,-3.535 0.727,-5.028 0.484,-1.492 1.187,-2.757 2.109,-3.797 0.922,-1.039 2.043,-1.832 3.363,-2.378 1.321,-0.547 2.809,-0.821 4.465,-0.821 z m -36,-7.429 c 0.609,0 1.109,0.023 1.5,0.07 0.391,0.047 0.703,0.109 0.938,0.187 0.234,0.079 0.398,0.18 0.492,0.305 0.094,0.125 0.14,0.266 0.14,0.422 v 11.133 h 11.344 v -11.133 c 0,-0.156 0.051,-0.297 0.153,-0.422 0.101,-0.125 0.265,-0.226 0.492,-0.305 0.226,-0.078 0.539,-0.14 0.937,-0.187 0.399,-0.047 0.903,-0.07 1.512,-0.07 0.594,0 1.086,0.023 1.476,0.07 0.391,0.047 0.704,0.109 0.938,0.187 0.234,0.079 0.402,0.18 0.504,0.305 0.101,0.125 0.152,0.266 0.152,0.422 v 28.641 c 0,0.156 -0.051,0.296 -0.152,0.421 -0.102,0.125 -0.27,0.227 -0.504,0.305 -0.234,0.078 -0.547,0.141 -0.938,0.188 -0.39,0.047 -0.882,0.07 -1.476,0.07 -0.609,0 -1.113,-0.023 -1.512,-0.07 -0.398,-0.047 -0.711,-0.11 -0.937,-0.188 -0.227,-0.078 -0.391,-0.18 -0.492,-0.305 -0.102,-0.125 -0.153,-0.265 -0.153,-0.421 v -12.258 h -11.344 v 12.258 c 0,0.156 -0.046,0.296 -0.14,0.421 -0.094,0.125 -0.258,0.227 -0.492,0.305 -0.235,0.078 -0.547,0.141 -0.938,0.188 -0.391,0.047 -0.891,0.07 -1.5,0.07 -0.594,0 -1.09,-0.023 -1.488,-0.07 -0.399,-0.047 -0.715,-0.11 -0.949,-0.188 -0.235,-0.078 -0.403,-0.18 -0.504,-0.305 -0.102,-0.125 -0.153,-0.265 -0.153,-0.421 v -28.641 c 0,-0.156 0.051,-0.297 0.153,-0.422 0.101,-0.125 0.269,-0.226 0.504,-0.305 0.234,-0.078 0.55,-0.14 0.949,-0.187 0.398,-0.047 0.894,-0.07 1.488,-0.07 z m 323.453,-2.086 c 0.578,0 1.055,0.023 1.43,0.07 0.375,0.047 0.672,0.113 0.891,0.199 0.218,0.086 0.375,0.192 0.468,0.317 0.094,0.125 0.141,0.265 0.141,0.421 v 30.75 c 0,0.172 -0.039,0.317 -0.117,0.434 -0.078,0.117 -0.211,0.215 -0.399,0.293 -0.187,0.078 -0.441,0.133 -0.761,0.164 -0.321,0.031 -0.715,0.047 -1.184,0.047 -0.5,0 -0.906,-0.016 -1.219,-0.047 -0.312,-0.031 -0.566,-0.086 -0.762,-0.164 -0.195,-0.078 -0.335,-0.176 -0.421,-0.293 -0.086,-0.117 -0.129,-0.262 -0.129,-0.434 v -2.32 c -1.078,1.156 -2.207,2.055 -3.387,2.695 -1.18,0.641 -2.488,0.961 -3.926,0.961 -1.594,0 -2.941,-0.308 -4.043,-0.925 -1.101,-0.618 -2,-1.45 -2.695,-2.496 -0.695,-1.047 -1.199,-2.27 -1.512,-3.668 -0.312,-1.399 -0.469,-2.872 -0.469,-4.418 0,-1.86 0.2,-3.532 0.598,-5.016 0.399,-1.484 0.981,-2.75 1.746,-3.797 0.766,-1.047 1.719,-1.851 2.86,-2.414 1.14,-0.562 2.453,-0.844 3.937,-0.844 1.172,0 2.234,0.239 3.188,0.715 0.953,0.477 1.898,1.176 2.836,2.098 v -11.321 c 0,-0.156 0.042,-0.296 0.128,-0.421 0.086,-0.125 0.243,-0.231 0.469,-0.317 0.227,-0.086 0.528,-0.152 0.903,-0.199 0.375,-0.047 0.851,-0.07 1.429,-0.07 z m -241.945,-0.071 c 0.578,0 1.055,0.024 1.43,0.071 0.375,0.047 0.675,0.113 0.902,0.199 0.227,0.086 0.387,0.191 0.48,0.316 0.094,0.125 0.141,0.266 0.141,0.422 v 18.352 l 6.188,-8.321 c 0.125,-0.187 0.265,-0.351 0.421,-0.492 0.157,-0.14 0.364,-0.25 0.622,-0.328 0.257,-0.078 0.578,-0.137 0.96,-0.176 0.383,-0.039 0.872,-0.058 1.465,-0.058 0.578,0 1.067,0.019 1.465,0.058 0.399,0.039 0.719,0.098 0.961,0.176 0.242,0.078 0.41,0.176 0.504,0.293 0.094,0.117 0.141,0.262 0.141,0.434 0,0.234 -0.059,0.484 -0.176,0.75 -0.117,0.265 -0.293,0.547 -0.528,0.843 l -6.117,6.938 7.078,10.945 c 0.188,0.313 0.325,0.582 0.411,0.809 0.086,0.226 0.128,0.433 0.128,0.621 0,0.156 -0.042,0.293 -0.128,0.41 -0.086,0.117 -0.243,0.211 -0.469,0.281 -0.227,0.071 -0.535,0.125 -0.926,0.164 -0.391,0.039 -0.898,0.059 -1.523,0.059 -0.641,0 -1.161,-0.016 -1.559,-0.047 -0.398,-0.031 -0.727,-0.082 -0.984,-0.152 -0.258,-0.071 -0.457,-0.168 -0.598,-0.293 -0.141,-0.125 -0.266,-0.289 -0.375,-0.492 l -6.961,-11.016 v 11.062 c 0,0.157 -0.047,0.293 -0.141,0.411 -0.093,0.117 -0.253,0.214 -0.48,0.293 -0.227,0.078 -0.527,0.136 -0.902,0.175 -0.375,0.039 -0.852,0.059 -1.43,0.059 -0.578,0 -1.055,-0.02 -1.43,-0.059 -0.375,-0.039 -0.676,-0.097 -0.902,-0.175 -0.227,-0.079 -0.387,-0.176 -0.481,-0.293 -0.093,-0.118 -0.14,-0.254 -0.14,-0.411 v -30.82 c 0,-0.156 0.047,-0.297 0.14,-0.422 0.094,-0.125 0.254,-0.23 0.481,-0.316 0.226,-0.086 0.527,-0.152 0.902,-0.199 0.375,-0.047 0.852,-0.071 1.43,-0.071 z m -41.477,-0.281 c 0.719,0 1.286,0.031 1.7,0.094 0.414,0.062 0.711,0.152 0.89,0.269 0.18,0.118 0.262,0.254 0.246,0.411 -0.015,0.156 -0.093,0.32 -0.234,0.492 l -4.547,5.437 c -0.125,0.156 -0.25,0.285 -0.375,0.387 -0.125,0.101 -0.285,0.184 -0.48,0.246 -0.196,0.063 -0.442,0.109 -0.739,0.141 -0.297,0.031 -0.672,0.047 -1.125,0.047 -0.547,0 -0.98,-0.024 -1.3,-0.071 -0.321,-0.047 -0.543,-0.121 -0.668,-0.222 -0.125,-0.102 -0.176,-0.231 -0.153,-0.387 0.024,-0.156 0.106,-0.336 0.246,-0.539 l 3.352,-5.367 c 0.109,-0.172 0.242,-0.321 0.398,-0.446 0.157,-0.125 0.352,-0.222 0.586,-0.293 0.235,-0.07 0.531,-0.121 0.891,-0.152 0.359,-0.031 0.797,-0.047 1.312,-0.047 z"
         stroke="#ed7d31"
         stroke-linejoin="round"
         stroke-miterlimit="10"
         fill="#f8cbad"
         fill-rule="evenodd"
         id="path831" />
      <text
         fill="#000000"
         fill-opacity="0"
         font-family="Arial, Arial_MSFontService, sans-serif"
         font-size="41.4141px"
         x="276.35101"
         y="243.864"
         id="text833">Hér kemur mynd</text>
      <path
         d="m 432.903,288.994 -4.289,12.891 h 8.602 l -4.289,-12.891 z m 0.094,-5.929 c 0.922,0 1.656,0.011 2.203,0.035 0.547,0.023 0.973,0.078 1.277,0.164 0.305,0.086 0.524,0.215 0.657,0.387 0.132,0.171 0.246,0.406 0.339,0.703 l 9.375,26.882 c 0.188,0.563 0.305,1.008 0.352,1.336 0.047,0.329 -0.016,0.575 -0.187,0.739 -0.172,0.164 -0.477,0.265 -0.915,0.304 -0.437,0.039 -1.039,0.059 -1.804,0.059 -0.797,0 -1.418,-0.012 -1.864,-0.035 -0.445,-0.024 -0.785,-0.071 -1.019,-0.141 -0.234,-0.07 -0.398,-0.168 -0.492,-0.293 -0.094,-0.125 -0.172,-0.289 -0.235,-0.492 l -2.039,-6.094 h -11.39 l -1.922,5.93 c -0.063,0.219 -0.145,0.402 -0.246,0.551 -0.102,0.148 -0.266,0.265 -0.492,0.351 -0.227,0.086 -0.547,0.145 -0.961,0.176 -0.414,0.031 -0.957,0.047 -1.629,0.047 -0.719,0 -1.282,-0.023 -1.688,-0.07 -0.406,-0.047 -0.687,-0.161 -0.844,-0.34 -0.156,-0.18 -0.21,-0.434 -0.164,-0.762 0.047,-0.328 0.164,-0.766 0.352,-1.312 l 9.352,-26.907 c 0.093,-0.265 0.203,-0.48 0.328,-0.644 0.125,-0.164 0.324,-0.289 0.597,-0.375 0.274,-0.086 0.653,-0.141 1.137,-0.164 0.484,-0.024 1.125,-0.035 1.922,-0.035 z m 26.141,-2.344 c 0.609,0 1.187,0.051 1.734,0.152 0.547,0.102 0.976,0.211 1.289,0.328 0.312,0.117 0.523,0.227 0.633,0.328 0.109,0.102 0.199,0.25 0.269,0.446 0.071,0.195 0.121,0.445 0.153,0.75 0.031,0.304 0.047,0.683 0.047,1.136 0,0.454 -0.016,0.817 -0.047,1.09 -0.032,0.274 -0.078,0.485 -0.141,0.633 -0.062,0.149 -0.133,0.25 -0.211,0.305 -0.078,0.054 -0.164,0.082 -0.258,0.082 -0.109,0 -0.23,-0.028 -0.363,-0.082 -0.133,-0.055 -0.297,-0.113 -0.492,-0.176 -0.196,-0.062 -0.426,-0.121 -0.692,-0.176 -0.265,-0.054 -0.578,-0.082 -0.937,-0.082 -0.422,0 -0.785,0.067 -1.09,0.199 -0.305,0.133 -0.559,0.344 -0.762,0.633 -0.203,0.289 -0.351,0.664 -0.445,1.125 -0.094,0.461 -0.141,1.028 -0.141,1.699 v 1.922 h 3.821 c 0.14,0 0.269,0.039 0.386,0.118 0.118,0.078 0.215,0.207 0.293,0.386 0.079,0.18 0.137,0.426 0.176,0.739 0.039,0.312 0.059,0.695 0.059,1.148 0,0.859 -0.078,1.473 -0.235,1.84 -0.156,0.367 -0.382,0.551 -0.679,0.551 h -3.821 v 16.921 c 0,0.157 -0.046,0.293 -0.14,0.411 -0.094,0.117 -0.25,0.214 -0.469,0.293 -0.219,0.078 -0.523,0.136 -0.914,0.175 -0.391,0.039 -0.867,0.059 -1.43,0.059 -0.562,0 -1.035,-0.02 -1.418,-0.059 -0.383,-0.039 -0.687,-0.097 -0.914,-0.175 -0.226,-0.079 -0.383,-0.176 -0.469,-0.293 -0.085,-0.118 -0.128,-0.254 -0.128,-0.411 v -16.921 h -2.625 c -0.297,0 -0.52,-0.184 -0.668,-0.551 -0.149,-0.367 -0.223,-0.981 -0.223,-1.84 0,-0.453 0.019,-0.836 0.059,-1.148 0.039,-0.313 0.093,-0.559 0.164,-0.739 0.07,-0.179 0.164,-0.308 0.281,-0.386 0.117,-0.079 0.254,-0.118 0.41,-0.118 h 2.602 v -1.757 c 0,-1.422 0.14,-2.668 0.421,-3.739 0.282,-1.07 0.723,-1.961 1.325,-2.672 0.601,-0.711 1.367,-1.246 2.297,-1.605 0.929,-0.359 2.027,-0.539 3.293,-0.539 z"
         stroke="#ed7d31"
         stroke-linejoin="round"
         stroke-miterlimit="10"
         fill="#f8cbad"
         fill-rule="evenodd"
         id="path835" />
      <text
         fill="#000000"
         fill-opacity="0"
         font-family="Arial, Arial_MSFontService, sans-serif"
         font-size="32.9531px"
         x="419.293"
         y="309.55499"
         id="text837">Af</text>
      <path
         d="m 454.584,368.666 c -0.75,0 -1.402,0.141 -1.957,0.422 -0.554,0.281 -1.015,0.66 -1.382,1.137 -0.368,0.476 -0.649,1.039 -0.844,1.687 -0.195,0.649 -0.309,1.34 -0.34,2.074 h 8.813 c 0.046,-1.656 -0.286,-2.957 -0.997,-3.902 -0.71,-0.945 -1.808,-1.418 -3.293,-1.418 z m -65,0 c -0.75,0 -1.402,0.141 -1.957,0.422 -0.554,0.281 -1.015,0.66 -1.382,1.137 -0.368,0.476 -0.649,1.039 -0.844,1.687 -0.195,0.649 -0.309,1.34 -0.34,2.074 h 8.813 c 0.046,-1.656 -0.286,-2.957 -0.997,-3.902 -0.71,-0.945 -1.808,-1.418 -3.293,-1.418 z m 123.649,-3.773 c 0.578,0 1.055,0.023 1.43,0.07 0.375,0.047 0.675,0.113 0.902,0.199 0.227,0.086 0.387,0.188 0.48,0.305 0.094,0.117 0.141,0.254 0.141,0.41 v 20.859 c 0,0.157 -0.047,0.293 -0.141,0.411 -0.093,0.117 -0.253,0.214 -0.48,0.293 -0.227,0.078 -0.527,0.136 -0.902,0.175 -0.375,0.039 -0.852,0.059 -1.43,0.059 -0.578,0 -1.055,-0.02 -1.43,-0.059 -0.375,-0.039 -0.676,-0.097 -0.902,-0.175 -0.227,-0.079 -0.387,-0.176 -0.481,-0.293 -0.093,-0.118 -0.14,-0.254 -0.14,-0.411 v -20.859 c 0,-0.156 0.047,-0.293 0.14,-0.41 0.094,-0.117 0.254,-0.219 0.481,-0.305 0.226,-0.086 0.527,-0.152 0.902,-0.199 0.375,-0.047 0.852,-0.07 1.43,-0.07 z m -16.649,-0.399 c 1.422,0 2.622,0.235 3.598,0.703 0.977,0.469 1.766,1.106 2.367,1.911 0.602,0.804 1.035,1.746 1.301,2.824 0.266,1.078 0.399,2.375 0.399,3.89 v 12.914 c 0,0.157 -0.047,0.293 -0.141,0.411 -0.094,0.117 -0.25,0.214 -0.469,0.293 -0.219,0.078 -0.519,0.136 -0.902,0.175 -0.383,0.039 -0.856,0.059 -1.418,0.059 -0.578,0 -1.059,-0.02 -1.442,-0.059 -0.382,-0.039 -0.683,-0.097 -0.902,-0.175 -0.219,-0.079 -0.375,-0.176 -0.469,-0.293 -0.093,-0.118 -0.14,-0.254 -0.14,-0.411 v -11.929 c 0,-1.016 -0.074,-1.813 -0.223,-2.391 -0.148,-0.578 -0.363,-1.074 -0.644,-1.488 -0.282,-0.414 -0.645,-0.735 -1.09,-0.961 -0.446,-0.227 -0.965,-0.34 -1.559,-0.34 -0.75,0 -1.508,0.274 -2.273,0.82 -0.766,0.547 -1.563,1.344 -2.391,2.391 v 13.898 c 0,0.157 -0.047,0.293 -0.141,0.411 -0.093,0.117 -0.253,0.214 -0.48,0.293 -0.227,0.078 -0.527,0.136 -0.902,0.175 -0.375,0.039 -0.852,0.059 -1.43,0.059 -0.578,0 -1.055,-0.02 -1.43,-0.059 -0.375,-0.039 -0.676,-0.097 -0.902,-0.175 -0.227,-0.079 -0.387,-0.176 -0.481,-0.293 -0.093,-0.118 -0.14,-0.254 -0.14,-0.411 V 365.83 c 0,-0.156 0.039,-0.293 0.117,-0.41 0.078,-0.117 0.219,-0.215 0.422,-0.293 0.203,-0.078 0.465,-0.137 0.785,-0.176 0.32,-0.039 0.723,-0.058 1.207,-0.058 0.5,0 0.914,0.019 1.242,0.058 0.328,0.039 0.582,0.098 0.762,0.176 0.18,0.078 0.309,0.176 0.387,0.293 0.078,0.117 0.117,0.254 0.117,0.41 v 2.414 c 1.156,-1.25 2.332,-2.187 3.527,-2.812 1.196,-0.625 2.442,-0.938 3.738,-0.938 z m -41.859,0 c 1.75,0 3.246,0.258 4.488,0.774 1.243,0.515 2.262,1.23 3.059,2.144 0.797,0.914 1.383,1.996 1.758,3.246 0.375,1.25 0.562,2.61 0.562,4.078 v 0.938 c 0,0.719 -0.16,1.25 -0.48,1.594 -0.32,0.343 -0.762,0.515 -1.324,0.515 h -12.727 c 0,0.891 0.106,1.7 0.316,2.426 0.211,0.727 0.547,1.344 1.008,1.852 0.461,0.507 1.055,0.894 1.782,1.16 0.726,0.265 1.597,0.398 2.613,0.398 1.031,0 1.937,-0.074 2.719,-0.222 0.781,-0.149 1.457,-0.313 2.027,-0.493 0.57,-0.179 1.043,-0.343 1.418,-0.492 0.375,-0.148 0.68,-0.222 0.914,-0.222 0.141,0 0.258,0.027 0.351,0.082 0.094,0.054 0.172,0.152 0.235,0.293 0.062,0.14 0.105,0.339 0.129,0.597 0.023,0.258 0.035,0.582 0.035,0.973 0,0.344 -0.008,0.637 -0.024,0.879 -0.015,0.242 -0.039,0.449 -0.07,0.621 -0.031,0.172 -0.078,0.316 -0.14,0.433 -0.063,0.118 -0.145,0.231 -0.247,0.34 -0.101,0.11 -0.378,0.258 -0.832,0.446 -0.453,0.187 -1.031,0.371 -1.734,0.55 -0.703,0.18 -1.508,0.336 -2.414,0.469 -0.906,0.133 -1.875,0.199 -2.906,0.199 -1.86,0 -3.489,-0.234 -4.887,-0.703 -1.398,-0.468 -2.566,-1.179 -3.504,-2.133 -0.937,-0.953 -1.637,-2.156 -2.098,-3.609 -0.46,-1.453 -0.691,-3.156 -0.691,-5.109 0,-1.86 0.242,-3.535 0.727,-5.028 0.484,-1.492 1.187,-2.757 2.109,-3.797 0.922,-1.039 2.043,-1.832 3.363,-2.378 1.321,-0.547 2.809,-0.821 4.465,-0.821 z m -38.851,0 c 0.203,0 0.421,0.012 0.656,0.035 0.234,0.024 0.476,0.063 0.726,0.118 0.25,0.054 0.469,0.117 0.657,0.187 0.187,0.07 0.324,0.145 0.41,0.223 0.086,0.078 0.148,0.164 0.187,0.258 0.039,0.093 0.074,0.222 0.106,0.386 0.031,0.164 0.054,0.41 0.07,0.739 0.016,0.328 0.023,0.773 0.023,1.336 0,0.562 -0.015,1.023 -0.046,1.382 -0.032,0.36 -0.079,0.641 -0.141,0.844 -0.063,0.203 -0.145,0.344 -0.246,0.422 -0.102,0.078 -0.231,0.117 -0.387,0.117 -0.125,0 -0.265,-0.027 -0.422,-0.082 -0.156,-0.055 -0.332,-0.113 -0.527,-0.176 -0.195,-0.062 -0.41,-0.121 -0.645,-0.175 -0.234,-0.055 -0.492,-0.082 -0.773,-0.082 -0.328,0 -0.656,0.066 -0.984,0.199 -0.329,0.133 -0.668,0.34 -1.02,0.621 -0.351,0.281 -0.719,0.656 -1.101,1.125 -0.383,0.469 -0.793,1.047 -1.231,1.734 v 13.031 c 0,0.157 -0.047,0.293 -0.141,0.411 -0.093,0.117 -0.253,0.214 -0.48,0.293 -0.227,0.078 -0.527,0.136 -0.902,0.175 -0.375,0.039 -0.852,0.059 -1.43,0.059 -0.578,0 -1.055,-0.02 -1.43,-0.059 -0.375,-0.039 -0.676,-0.097 -0.902,-0.175 -0.227,-0.079 -0.387,-0.176 -0.481,-0.293 -0.093,-0.118 -0.14,-0.254 -0.14,-0.411 V 365.83 c 0,-0.156 0.039,-0.293 0.117,-0.41 0.078,-0.117 0.219,-0.215 0.422,-0.293 0.203,-0.078 0.465,-0.137 0.785,-0.176 0.32,-0.039 0.723,-0.058 1.207,-0.058 0.5,0 0.914,0.019 1.242,0.058 0.328,0.039 0.582,0.098 0.762,0.176 0.18,0.078 0.309,0.176 0.387,0.293 0.078,0.117 0.117,0.254 0.117,0.41 v 2.602 c 0.547,-0.781 1.062,-1.426 1.547,-1.934 0.484,-0.508 0.945,-0.91 1.383,-1.207 0.437,-0.297 0.875,-0.504 1.312,-0.621 0.438,-0.117 0.875,-0.176 1.313,-0.176 z m -26.149,0 c 1.75,0 3.246,0.258 4.488,0.774 1.243,0.515 2.262,1.23 3.059,2.144 0.797,0.914 1.383,1.996 1.758,3.246 0.375,1.25 0.562,2.61 0.562,4.078 v 0.938 c 0,0.719 -0.16,1.25 -0.48,1.594 -0.32,0.343 -0.762,0.515 -1.324,0.515 h -12.727 c 0,0.891 0.106,1.7 0.316,2.426 0.211,0.727 0.547,1.344 1.008,1.852 0.461,0.507 1.055,0.894 1.782,1.16 0.726,0.265 1.597,0.398 2.613,0.398 1.031,0 1.937,-0.074 2.719,-0.222 0.781,-0.149 1.457,-0.313 2.027,-0.493 0.57,-0.179 1.043,-0.343 1.418,-0.492 0.375,-0.148 0.68,-0.222 0.914,-0.222 0.141,0 0.258,0.027 0.351,0.082 0.094,0.054 0.172,0.152 0.235,0.293 0.062,0.14 0.105,0.339 0.129,0.597 0.023,0.258 0.035,0.582 0.035,0.973 0,0.344 -0.008,0.637 -0.024,0.879 -0.015,0.242 -0.039,0.449 -0.07,0.621 -0.031,0.172 -0.078,0.316 -0.14,0.433 -0.063,0.118 -0.145,0.231 -0.247,0.34 -0.101,0.11 -0.378,0.258 -0.832,0.446 -0.453,0.187 -1.031,0.371 -1.734,0.55 -0.703,0.18 -1.508,0.336 -2.414,0.469 -0.906,0.133 -1.875,0.199 -2.906,0.199 -1.86,0 -3.489,-0.234 -4.887,-0.703 -1.398,-0.468 -2.566,-1.179 -3.504,-2.133 -0.937,-0.953 -1.637,-2.156 -2.098,-3.609 -0.46,-1.453 -0.691,-3.156 -0.691,-5.109 0,-1.86 0.242,-3.535 0.727,-5.028 0.484,-1.492 1.187,-2.757 2.109,-3.797 0.922,-1.039 2.043,-1.832 3.363,-2.378 1.321,-0.547 2.809,-0.821 4.465,-0.821 z M 353.1,357.065 c 0.719,0 1.281,0.015 1.688,0.046 0.406,0.032 0.718,0.086 0.937,0.165 0.219,0.078 0.371,0.195 0.457,0.351 0.086,0.156 0.168,0.352 0.246,0.586 l 7.383,23.391 h 0.023 l 7.243,-23.274 c 0.062,-0.265 0.14,-0.48 0.234,-0.644 0.094,-0.164 0.254,-0.293 0.481,-0.387 0.226,-0.094 0.55,-0.156 0.972,-0.188 0.422,-0.031 1,-0.046 1.735,-0.046 0.718,0 1.277,0.023 1.675,0.07 0.399,0.047 0.672,0.16 0.821,0.34 0.148,0.179 0.195,0.433 0.14,0.761 -0.054,0.329 -0.176,0.766 -0.363,1.313 l -9.047,26.906 c -0.078,0.266 -0.18,0.481 -0.305,0.645 -0.125,0.164 -0.328,0.289 -0.609,0.375 -0.281,0.086 -0.664,0.14 -1.148,0.164 -0.485,0.023 -1.118,0.035 -1.899,0.035 -0.625,0 -1.16,-0.004 -1.605,-0.012 -0.446,-0.008 -0.825,-0.027 -1.137,-0.058 -0.313,-0.032 -0.566,-0.078 -0.762,-0.141 -0.195,-0.062 -0.359,-0.141 -0.492,-0.234 -0.133,-0.094 -0.234,-0.207 -0.305,-0.34 -0.07,-0.133 -0.136,-0.301 -0.199,-0.504 l -9.023,-26.883 c -0.188,-0.562 -0.301,-1.008 -0.34,-1.336 -0.039,-0.328 0.039,-0.574 0.234,-0.738 0.196,-0.164 0.528,-0.266 0.996,-0.305 0.469,-0.039 1.125,-0.058 1.969,-0.058 z m 178.016,-0.399 c 1.578,0 2.957,0.199 4.136,0.598 1.18,0.398 2.161,0.953 2.942,1.664 0.781,0.711 1.363,1.555 1.746,2.531 0.383,0.977 0.574,2.027 0.574,3.152 0,0.985 -0.094,1.954 -0.281,2.907 -0.188,0.953 -0.578,1.98 -1.172,3.082 -0.594,1.101 -1.43,2.32 -2.508,3.656 -1.078,1.336 -2.508,2.887 -4.289,4.652 l -3.539,3.633 h 11.953 c 0.156,0 0.301,0.047 0.434,0.141 0.133,0.094 0.246,0.238 0.34,0.433 0.093,0.196 0.164,0.453 0.211,0.774 0.046,0.32 0.07,0.699 0.07,1.137 0,0.453 -0.02,0.839 -0.059,1.16 -0.039,0.32 -0.097,0.582 -0.175,0.785 -0.079,0.203 -0.18,0.347 -0.305,0.433 -0.125,0.086 -0.266,0.129 -0.422,0.129 h -17.438 c -0.343,0 -0.64,-0.031 -0.89,-0.093 -0.25,-0.063 -0.453,-0.184 -0.61,-0.364 -0.156,-0.179 -0.269,-0.441 -0.339,-0.785 -0.071,-0.344 -0.106,-0.789 -0.106,-1.336 0,-0.515 0.024,-0.957 0.07,-1.324 0.047,-0.367 0.133,-0.695 0.258,-0.984 0.125,-0.289 0.285,-0.571 0.481,-0.844 0.195,-0.274 0.449,-0.574 0.761,-0.902 l 5.25,-5.625 c 1.047,-1.094 1.891,-2.09 2.532,-2.989 0.64,-0.898 1.14,-1.719 1.5,-2.461 0.359,-0.742 0.605,-1.425 0.738,-2.05 0.133,-0.625 0.199,-1.219 0.199,-1.782 0,-0.515 -0.082,-1.004 -0.246,-1.465 -0.164,-0.461 -0.406,-0.863 -0.726,-1.207 -0.321,-0.343 -0.723,-0.613 -1.207,-0.808 -0.485,-0.196 -1.055,-0.293 -1.711,-0.293 -0.922,0 -1.739,0.117 -2.45,0.351 -0.711,0.235 -1.336,0.496 -1.875,0.786 -0.539,0.289 -0.988,0.554 -1.347,0.796 -0.36,0.243 -0.641,0.364 -0.844,0.364 -0.141,0 -0.262,-0.047 -0.363,-0.141 -0.102,-0.094 -0.184,-0.25 -0.246,-0.469 -0.063,-0.218 -0.114,-0.511 -0.153,-0.879 -0.039,-0.367 -0.058,-0.816 -0.058,-1.347 0,-0.36 0.011,-0.66 0.035,-0.903 0.023,-0.242 0.058,-0.453 0.105,-0.632 0.047,-0.18 0.11,-0.336 0.188,-0.469 0.078,-0.133 0.215,-0.293 0.41,-0.481 0.195,-0.187 0.555,-0.425 1.078,-0.714 0.524,-0.29 1.168,-0.571 1.934,-0.844 0.765,-0.274 1.609,-0.504 2.531,-0.692 0.922,-0.187 1.883,-0.281 2.883,-0.281 z m -17.86,-0.961 c 1.313,0 2.203,0.223 2.672,0.668 0.469,0.445 0.703,1.238 0.703,2.379 0,1.188 -0.242,2.008 -0.726,2.461 -0.485,0.453 -1.383,0.68 -2.696,0.68 -1.328,0 -2.222,-0.219 -2.683,-0.657 -0.461,-0.437 -0.692,-1.226 -0.692,-2.367 0,-1.187 0.239,-2.011 0.715,-2.472 0.477,-0.461 1.379,-0.692 2.707,-0.692 z m -88.023,-0.797 c 0.578,0 1.055,0.024 1.43,0.071 0.375,0.047 0.675,0.113 0.902,0.199 0.227,0.086 0.387,0.191 0.48,0.316 0.094,0.125 0.141,0.266 0.141,0.422 v 18.352 l 6.188,-8.321 c 0.125,-0.187 0.265,-0.351 0.421,-0.492 0.157,-0.14 0.364,-0.25 0.622,-0.328 0.257,-0.078 0.578,-0.137 0.96,-0.176 0.383,-0.039 0.872,-0.058 1.465,-0.058 0.578,0 1.067,0.019 1.465,0.058 0.399,0.039 0.719,0.098 0.961,0.176 0.242,0.078 0.41,0.176 0.504,0.293 0.094,0.117 0.141,0.262 0.141,0.434 0,0.234 -0.059,0.484 -0.176,0.75 -0.117,0.265 -0.293,0.547 -0.528,0.843 l -6.117,6.938 7.078,10.945 c 0.188,0.313 0.325,0.582 0.411,0.809 0.086,0.226 0.128,0.433 0.128,0.621 0,0.156 -0.042,0.293 -0.128,0.41 -0.086,0.117 -0.243,0.211 -0.469,0.281 -0.227,0.071 -0.535,0.125 -0.926,0.164 -0.391,0.039 -0.898,0.059 -1.523,0.059 -0.641,0 -1.161,-0.016 -1.559,-0.047 -0.398,-0.031 -0.727,-0.082 -0.984,-0.152 -0.258,-0.071 -0.457,-0.168 -0.598,-0.293 -0.141,-0.125 -0.266,-0.289 -0.375,-0.492 l -6.961,-11.016 v 11.062 c 0,0.157 -0.047,0.293 -0.141,0.411 -0.093,0.117 -0.253,0.214 -0.48,0.293 -0.227,0.078 -0.527,0.136 -0.902,0.175 -0.375,0.039 -0.852,0.059 -1.43,0.059 -0.578,0 -1.055,-0.02 -1.43,-0.059 -0.375,-0.039 -0.676,-0.097 -0.902,-0.175 -0.227,-0.079 -0.387,-0.176 -0.481,-0.293 -0.093,-0.118 -0.14,-0.254 -0.14,-0.411 v -30.82 c 0,-0.156 0.047,-0.297 0.14,-0.422 0.094,-0.125 0.254,-0.23 0.481,-0.316 0.226,-0.086 0.527,-0.152 0.902,-0.199 0.375,-0.047 0.852,-0.071 1.43,-0.071 z m 52.531,-0.187 c 0.61,0 1.188,0.051 1.735,0.152 0.546,0.102 0.976,0.211 1.289,0.328 0.312,0.117 0.523,0.227 0.632,0.328 0.11,0.102 0.2,0.25 0.27,0.446 0.07,0.195 0.121,0.445 0.152,0.75 0.032,0.304 0.047,0.683 0.047,1.136 0,0.454 -0.015,0.817 -0.047,1.09 -0.031,0.274 -0.078,0.485 -0.14,0.633 -0.063,0.149 -0.133,0.25 -0.211,0.305 -0.078,0.054 -0.164,0.082 -0.258,0.082 -0.109,0 -0.231,-0.028 -0.363,-0.082 -0.133,-0.055 -0.297,-0.113 -0.493,-0.176 -0.195,-0.062 -0.425,-0.121 -0.691,-0.176 -0.266,-0.054 -0.578,-0.082 -0.937,-0.082 -0.422,0 -0.786,0.067 -1.09,0.199 -0.305,0.133 -0.559,0.344 -0.762,0.633 -0.203,0.289 -0.352,0.664 -0.445,1.125 -0.094,0.461 -0.141,1.028 -0.141,1.699 v 1.922 h 3.82 c 0.141,0 0.27,0.039 0.387,0.118 0.117,0.078 0.215,0.207 0.293,0.386 0.078,0.18 0.137,0.426 0.176,0.739 0.039,0.312 0.058,0.695 0.058,1.148 0,0.859 -0.078,1.473 -0.234,1.84 -0.156,0.367 -0.383,0.551 -0.68,0.551 h -3.82 v 16.921 c 0,0.157 -0.047,0.293 -0.141,0.411 -0.093,0.117 -0.25,0.214 -0.468,0.293 -0.219,0.078 -0.524,0.136 -0.914,0.175 -0.391,0.039 -0.868,0.059 -1.43,0.059 -0.563,0 -1.035,-0.02 -1.418,-0.059 -0.383,-0.039 -0.688,-0.097 -0.914,-0.175 -0.227,-0.079 -0.383,-0.176 -0.469,-0.293 -0.086,-0.118 -0.129,-0.254 -0.129,-0.411 v -16.921 h -2.625 c -0.297,0 -0.519,-0.184 -0.668,-0.551 -0.148,-0.367 -0.222,-0.981 -0.222,-1.84 0,-0.453 0.019,-0.836 0.058,-1.148 0.039,-0.313 0.094,-0.559 0.164,-0.739 0.071,-0.179 0.164,-0.308 0.282,-0.386 0.117,-0.079 0.253,-0.118 0.41,-0.118 h 2.601 v -1.757 c 0,-1.422 0.141,-2.668 0.422,-3.739 0.281,-1.07 0.723,-1.961 1.324,-2.672 0.602,-0.711 1.368,-1.246 2.297,-1.605 0.93,-0.359 2.028,-0.539 3.293,-0.539 z"
         stroke="#ed7d31"
         stroke-linejoin="round"
         stroke-miterlimit="10"
         fill="#f8cbad"
         fill-rule="evenodd"
         id="path839" />
      <text
         fill="#000000"
         fill-opacity="0"
         font-family="Arial, Arial_MSFontService, sans-serif"
         font-size="33.3516px"
         x="349.89099"
         y="383.90302"
         id="text841">Verkefni2</text>
    </g>
  </g>
</svg>
